<svg xmlns="http://www.w3.org/2000/svg" version="1.1" xmlns:xlink="http://www.w3.org/1999/xlink" xmlns:svgjs="http://svgjs.dev/svgjs" width="1000" height="1125" viewBox="0 0 1000 1125"><g transform="matrix(1,0,0,1,0,0)"><svg viewBox="0 0 320 360" data-background-color="#ffffff" preserveAspectRatio="xMidYMid meet" height="1125" width="1000" xmlns="http://www.w3.org/2000/svg" xmlns:xlink="http://www.w3.org/1999/xlink"><g id="tight-bounds" transform="matrix(1,0,0,1,0,0)"><svg viewBox="0 0 320 360" height="360" width="320"><g><svg></svg></g><g><svg viewBox="0 0 320 360" height="360" width="320"><g><path d="M160 42.18c72.417 0 131.943 56.114 137.63 127.014h22.37c-1.137-17.82-5.308-34.882-12.133-51.185-7.962-18.957-19.716-36.398-34.502-50.805-14.787-14.787-31.848-26.161-50.806-34.503-20.095-8.341-40.948-12.891-62.559-12.891-21.611 0-42.464 4.171-62.559 12.512-18.957 7.962-36.398 19.716-50.806 34.503-14.787 14.787-26.161 31.848-34.502 50.805-6.825 16.303-10.995 33.744-12.133 51.185h22.37c5.687-70.521 65.213-126.635 137.63-126.635zM160 318.199c-72.417 0-131.943-56.114-137.63-127.014h-22.37c1.137 17.82 5.308 34.882 12.133 51.185 7.962 18.957 19.716 36.398 34.502 50.805 14.787 14.787 31.848 26.161 50.806 34.503 19.716 8.341 40.569 12.512 62.559 12.512 21.991 0 42.464-4.171 62.559-12.512 18.957-7.962 36.398-19.716 50.806-34.503 14.787-14.787 26.161-31.848 34.502-50.805 6.825-16.303 10.995-33.744 12.133-51.185h-22.37c-5.687 70.9-65.213 127.014-137.63 127.014z" fill="#0063db" fill-rule="nonzero" stroke="none" stroke-width="1" stroke-linecap="butt" stroke-linejoin="miter" stroke-miterlimit="10" stroke-dasharray="" stroke-dashoffset="0" font-family="none" font-weight="none" font-size="none" text-anchor="none" style="mix-blend-mode: normal" data-fill-palette-color="tertiary"></path></g><g transform="matrix(1,0,0,1,71.15104068564017,90)"><svg viewBox="0 0 177.69791862871966 180" height="180" width="177.69791862871966"><g><svg viewBox="0 0 177.69791862871966 180" height="180" width="177.69791862871966"><g><svg viewBox="0 0 177.69791862871966 180" height="180" width="177.69791862871966"><g id="textblocktransform"><svg viewBox="0 0 177.69791862871966 180" height="180" width="177.69791862871966" id="textblock"><g><svg viewBox="0 0 177.69791862871966 180" height="180" width="177.69791862871966"><g transform="matrix(1,0,0,1,0,0)"><svg width="177.69791862871966" viewBox="3.7404761904761896 -36.00833333333 35.59952380952381 36.05833333333" height="180" data-palette-color="#0063db"><path d="M39.3-3.35L39.3-3.35Q39.25-1.9 38.2-0.9 37.15 0.1 35.7 0.05 34.25 0 33.25-1.05 32.25-2.1 32.3-3.55L32.3-3.55Q32.4-6.8 32.2-22.75L32.2-22.75Q28.5-18.1 24.9-12.8L24.9-12.8Q24.05-11.6 22.65-11.33 21.25-11.05 20.05-11.85L20.05-11.85Q19.9-11.95 19.8-12.05L19.8-12.05Q19.25-12.4 18.85-12.9L18.85-12.9 11.15-22.6Q11.2-22.5 11.18-13.03 11.15-3.55 11.15-3.5L11.15-3.5Q11.15-2.05 10.13-1.03 9.1 0 7.65 0 6.2 0 5.18-1.03 4.15-2.05 4.15-3.5L4.15-3.5Q4.15-5.6 4.17-10.55 4.2-15.5 4.2-18.2 4.2-20.9 4.1-24.9L4.1-24.9Q4-28.45 3.75-32.25L3.75-32.25Q3.65-33.7 4.6-34.8 5.55-35.9 7-36L7-36Q7.75-36.05 8.4-35.8L8.4-35.8Q9.8-35.6 10.65-34.45L10.65-34.45 21.75-20.5Q27.15-28 32.75-34L32.75-34Q33.8-35.8 35.85-35.75L35.85-35.75Q37.3-35.7 38.3-34.65 39.3-33.6 39.25-32.15L39.25-32.15Q39.1-27.4 39.25-17.63 39.4-7.85 39.3-3.35L39.3-3.35Z" opacity="1" transform="matrix(1,0,0,1,0,0)" fill="#0063db" class="undefined-text-0" data-fill-palette-color="primary" id="text-0"></path></svg></g></svg></g></svg></g></svg></g></svg></g></svg></g></svg></g><defs></defs></svg><rect width="320" height="360" fill="none" stroke="none" visibility="hidden"></rect></g></svg></g></svg>